<svg width="795.39431" height="574.03802" xmlns="http://www.w3.org/2000/svg">
 <defs>
  <linearGradient id="b2a81085-935f-40be-bb27-75940df8c338" x1="0.000001" y1="0.5" x2="1.000001" y2="0.5">
   <stop offset="0" stop-color="gray" stop-opacity="0.25"/>
   <stop offset="0.53514" stop-color="gray" stop-opacity="0.12"/>
   <stop offset="1" stop-color="gray" stop-opacity="0.1"/>
  </linearGradient>
 </defs>
 <title>Graduation</title>
 <g>
  <title>background</title>
  <rect x="-1" y="-1" width="797.39431" height="576.03802" id="canvas_background" fill="none"/>
 </g>
 <g>
  <title>Layer 1</title>
  <ellipse cx="-244.498982" cy="744.992646" rx="35.09476" ry="5.26421" transform="rotate(-63.61079025268555 -244.49899291992205,744.9926147460936) " fill="#e0e0e0" id="svg_1"/>
  <ellipse cx="242.540463" cy="1476.591455" rx="35.09476" ry="3.57677" transform="rotate(-63.61079025268555 242.54045104980437,1476.5914306640623) " fill="#e0e0e0" id="svg_2"/>
  <rect x="898.874722" y="1708.147479" width="23.69234" height="70.18951" opacity="0.05" id="svg_4"/>
  <rect x="903.937665" y="1709.337873" width="21.05685" height="70.18951" fill="#f55f44" id="svg_5"/>
  <rect x="-37.715799" y="865.875769" width="73.69899" height="489.57186" transform="rotate(-63.61079025268555 -0.8663024902343477,1110.6617431640625) " fill="url(#b2a81085-935f-40be-bb27-75940df8c338)" id="svg_6"/>
  <circle cx="261.30557" cy="563.92499" r="2.92569" fill="#dbdbdb" id="svg_12"/>
  <g transform="rotate(-12.486916542053223 497.8942260742182,352.9999999999999) " stroke="null" opacity="0.5" id="svg_13">
   <rect stroke="null" x="495.335493" y="338" width="5.117646" height="30" fill="#47e6b1" id="svg_14"/>
   <rect stroke="null" x="1406.739132" y="762.352785" width="3" height="17" transform="matrix(0,1.7647058963775635,-1.7058819465192983,0,1812.8780700652803,-2132.1278163976167) " fill="#47e6b1" id="svg_15"/>
  </g>
  <g opacity="0.5" id="svg_16">
   <rect x="689.39431" y="283" width="3" height="17" fill="#47e6b1" id="svg_17"/>
   <rect x="2120.072404" y="-264.716154" width="3" height="17" transform="rotate(90 1132.3752441406252,-697.6971435546876) " fill="#47e6b1" id="svg_18"/>
  </g>
  <g opacity="0.5" id="svg_19">
   <rect x="66.39431" y="70" width="3" height="17" fill="#47e6b1" id="svg_20"/>
   <rect x="548.072465" y="49.283831" width="3" height="17" transform="rotate(90 298.3753051757813,-172.6971588134766) " fill="#47e6b1" id="svg_21"/>
  </g>
  <path d="m54.289679,212.456312a3.67458,3.67458 0 0 1 -2.04749,-4.441a1.76592,1.76592 0 0 0 0.0799,-0.40754l0,0a1.84257,1.84257 0 0 0 -3.31045,-1.22119l0,0a1.76637,1.76637 0 0 0 -0.2039,0.3618a3.67459,3.67459 0 0 1 -4.441,2.04749a1.766,1.766 0 0 0 -0.40754,-0.07991l0,0a1.84258,1.84258 0 0 0 -1.22119,3.31045l0,0a1.76606,1.76606 0 0 0 0.3618,0.20389a3.67462,3.67462 0 0 1 2.04749,4.441a1.76594,1.76594 0 0 0 -0.07991,0.40754l0,0a1.84257,1.84257 0 0 0 3.31045,1.22119l0,0a1.7659,1.7659 0 0 0 0.2039,-0.3618a3.67459,3.67459 0 0 1 4.441,-2.04749a1.76665,1.76665 0 0 0 0.40755,0.07991l0,0a1.84257,1.84257 0 0 0 1.22119,-3.31045l0,0a1.76684,1.76684 0 0 0 -0.3618,-0.20389z" fill="#4d8af0" opacity="0.5" id="svg_25"/>
  <path d="m182.289679,56.456312a3.67458,3.67458 0 0 1 -2.04749,-4.441a1.76592,1.76592 0 0 0 0.0799,-0.40754l0,0a1.84257,1.84257 0 0 0 -3.31045,-1.22119l0,0a1.76637,1.76637 0 0 0 -0.2039,0.3618a3.67459,3.67459 0 0 1 -4.441,2.04749a1.766,1.766 0 0 0 -0.40754,-0.07991l0,0a1.84258,1.84258 0 0 0 -1.22119,3.31045l0,0a1.76606,1.76606 0 0 0 0.3618,0.20389a3.67462,3.67462 0 0 1 2.04749,4.441a1.76594,1.76594 0 0 0 -0.07991,0.40754l0,0a1.84257,1.84257 0 0 0 3.31045,1.22119l0,0a1.7659,1.7659 0 0 0 0.2039,-0.3618a3.67459,3.67459 0 0 1 4.441,-2.04749a1.76665,1.76665 0 0 0 0.40755,0.07991l0,0a1.84257,1.84257 0 0 0 1.22119,-3.31045l0,0a1.76684,1.76684 0 0 0 -0.3618,-0.20389z" fill="#4d8af0" opacity="0.5" id="svg_26"/>
  <path d="m394.289679,567.456312a3.67458,3.67458 0 0 1 -2.04749,-4.441a1.76592,1.76592 0 0 0 0.0799,-0.40754l0,0a1.84257,1.84257 0 0 0 -3.31045,-1.22119l0,0a1.76637,1.76637 0 0 0 -0.2039,0.3618a3.67459,3.67459 0 0 1 -4.441,2.04749a1.766,1.766 0 0 0 -0.40754,-0.07991l0,0a1.84258,1.84258 0 0 0 -1.22119,3.31045l0,0a1.76606,1.76606 0 0 0 0.3618,0.20389a3.67462,3.67462 0 0 1 2.04749,4.441a1.76594,1.76594 0 0 0 -0.07991,0.40754l0,0a1.84257,1.84257 0 0 0 3.31045,1.22119l0,0a1.7659,1.7659 0 0 0 0.2039,-0.3618a3.67459,3.67459 0 0 1 4.441,-2.04749a1.76665,1.76665 0 0 0 0.40755,0.07991l0,0a1.84257,1.84257 0 0 0 1.22119,-3.31045l0,0a1.76684,1.76684 0 0 0 -0.3618,-0.20389z" fill="#4d8af0" opacity="0.5" id="svg_27"/>
  <circle stroke="null" cx="294.394218" cy="432.5" r="18" fill="#f55f44" opacity="0.5" id="svg_28"/>
  <circle cx="627.39431" cy="482" r="6" fill="#4d8af0" opacity="0.5" id="svg_29"/>
  <circle cx="103.39431" cy="541" r="6" fill="#47e6b1" opacity="0.5" id="svg_30"/>
  <circle cx="407.39431" cy="26" r="6" fill="#f55f44" opacity="0.5" id="svg_31"/>
  <path d="m721.289679,136.456312a3.67458,3.67458 0 0 1 -2.04749,-4.441a1.76592,1.76592 0 0 0 0.0799,-0.40754l0,0a1.84257,1.84257 0 0 0 -3.31045,-1.22119l0,0a1.76637,1.76637 0 0 0 -0.2039,0.3618a3.67459,3.67459 0 0 1 -4.441,2.04749a1.766,1.766 0 0 0 -0.40754,-0.07991l0,0a1.84258,1.84258 0 0 0 -1.22119,3.31045l0,0a1.76606,1.76606 0 0 0 0.3618,0.20389a3.67462,3.67462 0 0 1 2.04749,4.441a1.76594,1.76594 0 0 0 -0.07991,0.40754l0,0a1.84257,1.84257 0 0 0 3.31045,1.22119l0,0a1.7659,1.7659 0 0 0 0.2039,-0.3618a3.67459,3.67459 0 0 1 4.441,-2.04749a1.76665,1.76665 0 0 0 0.40755,0.07991l0,0a1.84257,1.84257 0 0 0 1.22119,-3.31045l0,0a1.76684,1.76684 0 0 0 -0.3618,-0.20389z" fill="#4d8af0" opacity="0.5" id="svg_7"/>
  <path d="m403.289679,310.456312a3.67458,3.67458 0 0 1 -2.04749,-4.441a1.76592,1.76592 0 0 0 0.0799,-0.40754l0,0a1.84257,1.84257 0 0 0 -3.31045,-1.22119l0,0a1.76637,1.76637 0 0 0 -0.2039,0.3618a3.67459,3.67459 0 0 1 -4.441,2.04749a1.766,1.766 0 0 0 -0.40754,-0.07991l0,0a1.84258,1.84258 0 0 0 -1.22119,3.31045l0,0a1.76606,1.76606 0 0 0 0.3618,0.20389a3.67462,3.67462 0 0 1 2.04749,4.441a1.76594,1.76594 0 0 0 -0.07991,0.40754l0,0a1.84257,1.84257 0 0 0 3.31045,1.22119l0,0a1.7659,1.7659 0 0 0 0.2039,-0.3618a3.67459,3.67459 0 0 1 4.441,-2.04749a1.76665,1.76665 0 0 0 0.40755,0.07991l0,0a1.84257,1.84257 0 0 0 1.22119,-3.31045l0,0a1.76684,1.76684 0 0 0 -0.3618,-0.20389z" fill="#4d8af0" opacity="0.5" id="svg_8"/>
  <path d="m225.289679,177.456312a3.67458,3.67458 0 0 1 -2.04749,-4.441a1.76592,1.76592 0 0 0 0.0799,-0.40754l0,0a1.84257,1.84257 0 0 0 -3.31045,-1.22119l0,0a1.76637,1.76637 0 0 0 -0.2039,0.3618a3.67459,3.67459 0 0 1 -4.441,2.04749a1.766,1.766 0 0 0 -0.40754,-0.07991l0,0a1.84258,1.84258 0 0 0 -1.22119,3.31045l0,0a1.76606,1.76606 0 0 0 0.3618,0.20389a3.67462,3.67462 0 0 1 2.04749,4.441a1.76594,1.76594 0 0 0 -0.07991,0.40754l0,0a1.84257,1.84257 0 0 0 3.31045,1.22119l0,0a1.7659,1.7659 0 0 0 0.2039,-0.3618a3.67459,3.67459 0 0 1 4.441,-2.04749a1.76665,1.76665 0 0 0 0.40755,0.07991l0,0a1.84257,1.84257 0 0 0 1.22119,-3.31045l0,0a1.76684,1.76684 0 0 0 -0.3618,-0.20389z" fill="#4d8af0" opacity="0.5" id="svg_9"/>
  <path stroke="null" d="m549.980099,111.099782a8.068655,8.343253 0 0 1 -4.495886,-10.083434a3.877613,4.009579 0 0 0 0.175445,-0.925333l0,0a4.045921,4.183615 0 0 0 -7.269097,-2.772751l0,0a3.878601,4.0106 0 0 0 -0.447724,0.821479a8.068677,8.343276 0 0 1 -9.751563,4.648892a3.877789,4.00976 0 0 0 -0.894878,-0.181438l0,0a4.045943,4.183638 0 0 0 -2.681493,7.516484l0,0a3.877921,4.009896 0 0 0 0.794442,0.462939a8.068743,8.343344 0 0 1 4.495886,10.083434a3.877657,4.009624 0 0 0 -0.175467,0.925333l0,0a4.045921,4.183615 0 0 0 7.269097,2.772751l0,0a3.877569,4.009533 0 0 0 0.447724,-0.821479a8.068677,8.343276 0 0 1 9.751563,-4.648892a3.879216,4.011236 0 0 0 0.8949,0.181438l0,0a4.045921,4.183615 0 0 0 2.681493,-7.516484l0,0a3.879633,4.011667 0 0 0 -0.794442,-0.462939z" fill="#4d8af0" opacity="0.5" id="svg_10"/>
  <path stroke="null" d="m396.798578,162.99852a5.322353,5.047727 0 0 1 -2.965635,-6.100549a2.557802,2.425823 0 0 0 0.115729,-0.559833l0,0a2.668824,2.531116 0 0 0 -4.794938,-1.677534l0,0a2.558454,2.426441 0 0 0 -0.295334,0.497a5.322367,5.04774 0 0 1 -6.432454,2.812613a2.557918,2.425933 0 0 0 -0.590291,-0.109771l0,0a2.668838,2.53113 0 0 0 -1.768802,4.547526l0,0a2.558005,2.426016 0 0 0 0.52404,0.280081a5.322411,5.047782 0 0 1 2.965635,6.100549a2.557831,2.425851 0 0 0 -0.115744,0.559833l0,0a2.668824,2.531116 0 0 0 4.794938,1.677534l0,0a2.557773,2.425796 0 0 0 0.295334,-0.497a5.322367,5.04774 0 0 1 6.432454,-2.812613a2.55886,2.426826 0 0 0 0.590306,0.109771l0,0a2.668824,2.531116 0 0 0 1.768802,-4.547526l0,0a2.559135,2.427087 0 0 0 -0.52404,-0.280081z" fill="#4d8af0" opacity="0.5" id="svg_11"/>
  <path d="m136.289679,348.456312a3.67458,3.67458 0 0 1 -2.04749,-4.441a1.76592,1.76592 0 0 0 0.0799,-0.40754l0,0a1.84257,1.84257 0 0 0 -3.31045,-1.22119l0,0a1.76637,1.76637 0 0 0 -0.2039,0.3618a3.67459,3.67459 0 0 1 -4.441,2.04749a1.766,1.766 0 0 0 -0.40754,-0.07991l0,0a1.84258,1.84258 0 0 0 -1.22119,3.31045l0,0a1.76606,1.76606 0 0 0 0.3618,0.20389a3.67462,3.67462 0 0 1 2.04749,4.441a1.76594,1.76594 0 0 0 -0.07991,0.40754l0,0a1.84257,1.84257 0 0 0 3.31045,1.22119l0,0a1.7659,1.7659 0 0 0 0.2039,-0.3618a3.67459,3.67459 0 0 1 4.441,-2.04749a1.76665,1.76665 0 0 0 0.40755,0.07991l0,0a1.84257,1.84257 0 0 0 1.22119,-3.31045l0,0a1.76684,1.76684 0 0 0 -0.3618,-0.20389z" fill="#4d8af0" opacity="0.5" id="svg_32"/>
  <circle cx="559.39431" cy="272" r="6" fill="#f55f44" opacity="0.5" id="svg_33"/>
  <circle cx="317.39431" cy="413" r="6" fill="#f55f44" opacity="0.5" id="svg_34"/>
  <g opacity="0.5" id="svg_37">
   <rect x="29.39431" y="482" width="3" height="17" fill="#47e6b1" id="svg_35"/>
   <rect x="916.072465" y="902.283816" width="3" height="17" transform="rotate(90 684.3753051757814,257.30282592773443) " fill="#47e6b1" id="svg_36"/>
  </g>
  <g opacity="0.5" id="svg_40">
   <rect x="199.39431" y="247" width="3" height="17" fill="#47e6b1" id="svg_38"/>
   <rect x="1086.072465" y="667.283816" width="3" height="17" transform="rotate(90 854.3753051757812,22.302825927734435) " fill="#47e6b1" id="svg_39"/>
  </g>
 </g>
</svg>