<svg width="730.43901" height="449.88124" xmlns="http://www.w3.org/2000/svg">
 <title>code_thinking</title>

 <g>
  <title>background</title>
  <rect fill="none" id="canvas_background" height="451.88124" width="732.43901" y="-1" x="-1"/>
 </g>
 <g>
  <title>Layer 1</title>
  <rect id="svg_17" fill="#f9a826" transform="rotate(74.06317138671875 184.79595947265634,341.3801879882812) " height="28" width="28" y="327.380188" x="170.795959"/>
  <rect id="svg_19" fill="#f9a826" transform="rotate(133.06280517578125 139.53335571289062,371.0237731933594) " height="28" width="28" y="357.023777" x="125.533362"/>
  <path id="svg_21" fill="#3f3d56" d="m684.231809,19.362313l-260.1696,0l0,-5.36232l-117.971,0l0,5.36232l-261.24209,0a17.5985,17.5985 0 0 0 -17.59851,17.59851l0,356.25219a17.59855,17.59855 0 0 0 17.59851,17.5986l639.38269,0a17.59855,17.59855 0 0 0 17.59851,-17.59857l0,-356.25222a17.5985,17.5985 0 0 0 -17.59851,-17.59851z"/>
  <rect id="svg_22" fill="#f9a826" height="353.91304" width="627.3913" y="50.46377" x="50.84481"/>
  <circle id="svg_23" fill="#f9a826" r="6.43478" cy="34.37681" cx="364.00423"/>
  <polygon id="svg_24" opacity="0.1" points="498.81298828125,404.37701416015625 50.845001220703125,404.37701416015625 50.845001220703125,50.4640007019043 498.81298828125,404.37701416015625 "/>
  <rect id="svg_33" fill="#f2f2f2" height="24.49173" width="24.49173" y="57.64395" x="615.35627"/>
  <path id="svg_34" fill="#3f3d56" d="m651.219159,93.506823l-29.74,0l0,-29.74l29.74,0l0,29.74zm-28.44691,-31.033l27.15387,0l0,2.58609l-27.15387,0l0,-2.58609z"/>
  <path stroke="null" id="svg_35" fill="#3f3d56" d="m708.758183,397.942003l-60.319156,0l0,-4.41153a0.861668,0.87467 0 0 0 -0.861698,-0.87471l-20.680854,0a0.861678,0.87468 0 0 0 -0.861698,0.87471l0,4.41153l-12.925535,0l0,-4.41153a0.861678,0.87468 0 0 0 -0.861698,-0.87471l-20.680854,0a0.861678,0.87468 0 0 0 -0.861708,0.87471l0,4.41153l-12.925525,0l0,-4.41153a0.861678,0.87468 0 0 0 -0.861708,-0.87471l-20.680854,0a0.861678,0.87468 0 0 0 -0.861698,0.87471l0,4.41153l-12.925535,0l0,-4.41153a0.861678,0.87468 0 0 0 -0.861698,-0.87471l-20.680873,0a0.861668,0.87467 0 0 0 -0.861698,0.87471l0,4.41153l-12.925515,0l0,-4.41153a0.861678,0.87468 0 0 0 -0.861708,-0.87471l-20.680844,0a0.861678,0.87468 0 0 0 -0.861708,0.87471l0,4.41153l-12.925535,0l0,-4.41153a0.861678,0.87468 0 0 0 -0.861698,-0.87471l-20.680854,0a0.861678,0.87468 0 0 0 -0.861698,0.87471l0,4.41153l-12.925515,0l0,-4.41153a0.861678,0.87468 0 0 0 -0.861698,-0.87471l-162.000029,0a0.861678,0.87468 0 0 0 -0.861698,0.87471l0,4.41153l-12.925535,0l0,-4.41153a0.861678,0.87468 0 0 0 -0.861708,-0.87471l-20.680795,0a0.861678,0.87468 0 0 0 -0.861708,0.87471l0,4.41153l-12.925584,0l0,-4.41153a0.861668,0.87467 0 0 0 -0.861698,-0.87471l-20.680854,0a0.861678,0.87468 0 0 0 -0.861698,0.87471l0,4.41153l-12.925535,0l0,-4.41153a0.861678,0.87468 0 0 0 -0.861698,-0.87471l-20.680854,0a0.861678,0.87468 0 0 0 -0.861708,0.87471l0,4.41153l-12.925525,0l0,-4.41153a0.861678,0.87468 0 0 0 -0.861708,-0.87471l-20.680854,0a0.861678,0.87468 0 0 0 -0.861698,0.87471l0,4.41153l-12.925555,0l0,-4.41153a0.861678,0.87468 0 0 0 -0.861698,-0.87471l-20.680834,0a0.861668,0.87467 0 0 0 -0.861698,0.87471l0,4.41153l-12.925535,0l0,-4.41153a0.861678,0.87468 0 0 0 -0.861708,-0.87471l-20.680844,0a0.861678,0.87468 0 0 0 -0.861708,0.87471l0,4.41153l-39.638302,0a20.680864,20.99292 0 0 0 -20.680844,20.99291l0,9.4925a20.680854,20.99291 0 0 0 20.680844,20.99285l687.63832,0a20.680864,20.99292 0 0 0 20.680854,-20.99285l0,-9.4925a20.680873,20.99293 0 0 0 -20.680854,-20.99291z"/>
 </g>
</svg>