<svg width="795.39431" height="574.03802" xmlns="http://www.w3.org/2000/svg">
 <defs>
  <linearGradient y2="0.5" x2="1.000001" y1="0.5" x1="0.000001" id="b2a81085-935f-40be-bb27-75940df8c338">
   <stop stop-opacity="0.25" stop-color="gray" offset="0"/>
   <stop stop-opacity="0.12" stop-color="gray" offset="0.53514"/>
   <stop stop-opacity="0.1" stop-color="gray" offset="1"/>
  </linearGradient>
 </defs>
 <title>Graduation</title>
 <g>
  <title>background</title>
  <rect fill="none" id="canvas_background" height="402" width="582" y="-1" x="-1"/>
 </g>
 <g>
  <title>Layer 1</title>
  <ellipse id="svg_1" fill="#e0e0e0" transform="rotate(-63.61079025268555 -244.49899291992205,744.9926147460936) " ry="5.26421" rx="35.09476" cy="744.992646" cx="-244.498982"/>
  <ellipse id="svg_2" fill="#e0e0e0" transform="rotate(-63.61079025268555 242.54045104980437,1476.5914306640623) " ry="3.57677" rx="35.09476" cy="1476.591455" cx="242.540463"/>
  <rect id="svg_3" fill="#f55f44" transform="rotate(39.54732131958008 274.5206909179685,-285.26226806640614) " height="70.18951" width="21.05685" y="281.672872" x="672.473941"/>
  <rect id="svg_4" opacity="0.05" transform="rotate(-166.76890563964844 489.5496520996094,1134.5812988281248) " height="70.18951" width="23.69234" y="1708.147479" x="898.874722"/>
  <rect id="svg_5" fill="#f55f44" transform="rotate(-166.76890563964844 492.01208496093756,1135.4700927734375) " height="70.18951" width="21.05685" y="1709.337873" x="903.937665"/>
  <rect id="svg_6" fill="url(#b2a81085-935f-40be-bb27-75940df8c338)" transform="rotate(-63.61079025268555 -0.8663024902343477,1110.6617431640625) " height="489.57186" width="73.69899" y="865.875769" x="-37.715799"/>
  <rect id="svg_8" opacity="0.05" transform="rotate(26.389209747314453 90.06388854980474,-301.643798828125) " height="70.18951" width="40.35897" y="217.450031" x="511.788969"/>
  <rect id="svg_9" fill="#f55f44" transform="rotate(26.389209747314453 90.06388854980474,-301.643798828125) " height="70.18951" width="36.8495" y="217.450031" x="513.543699"/>
  <rect id="svg_10" opacity="0.05" transform="rotate(26.389209747314453 89.8086700439453,-301.3351135253906) " height="70.18951" width="24.56633" y="217.368756" x="518.64412"/>
  <rect id="svg_11" fill="#f55f44" transform="rotate(26.389209747314453 89.8086700439453,-301.3351135253906) " height="70.18951" width="21.05685" y="217.368756" x="520.39886"/>
  <circle id="svg_12" fill="#dbdbdb" r="2.92569" cy="563.92499" cx="261.30557"/>
  <g id="svg_13" opacity="0.5">
   <rect id="svg_14" fill="#47e6b1" height="17" width="3" y="482" x="29.39431"/>
   <rect id="svg_15" fill="#47e6b1" transform="rotate(90 684.3753051757814,257.30282592773443) " height="17" width="3" y="902.283816" x="916.072465"/>
  </g>
  <g id="svg_16" opacity="0.5">
   <rect id="svg_17" fill="#47e6b1" height="17" width="3" y="270" x="785.39431"/>
   <rect id="svg_18" fill="#47e6b1" transform="rotate(90 1228.3752441406252,-710.6971435546876) " height="17" width="3" y="-277.716154" x="2216.072404"/>
  </g>
  <g id="svg_19" opacity="0.5">
   <rect id="svg_20" fill="#47e6b1" height="17" width="3" y="59" x="47.39431"/>
   <rect id="svg_21" fill="#47e6b1" transform="rotate(90 279.3753051757813,-183.6971588134766) " height="17" width="3" y="38.283831" x="529.072465"/>
  </g>
  <g id="svg_22" opacity="0.5">
   <rect id="svg_23" fill="#47e6b1" height="17" width="3" y="33" x="695.39431"/>
   <rect id="svg_24" fill="#47e6b1" transform="rotate(90 901.3753051757814,-857.6971435546875) " height="17" width="3" y="-661.716154" x="1799.072465"/>
  </g>
  <path id="svg_25" opacity="0.5" fill="#4d8af0" d="m12.289679,253.456312a3.67458,3.67458 0 0 1 -2.04749,-4.441a1.76592,1.76592 0 0 0 0.0799,-0.40754l0,0a1.84257,1.84257 0 0 0 -3.31045,-1.22119l0,0a1.76637,1.76637 0 0 0 -0.2039,0.3618a3.67459,3.67459 0 0 1 -4.441,2.04749a1.766,1.766 0 0 0 -0.40754,-0.07991l0,0a1.84258,1.84258 0 0 0 -1.22119,3.31045l0,0a1.76606,1.76606 0 0 0 0.3618,0.20389a3.67462,3.67462 0 0 1 2.04749,4.441a1.76594,1.76594 0 0 0 -0.07991,0.40754l0,0a1.84257,1.84257 0 0 0 3.31045,1.22119l0,0a1.7659,1.7659 0 0 0 0.2039,-0.3618a3.67459,3.67459 0 0 1 4.441,-2.04749a1.76665,1.76665 0 0 0 0.40755,0.07991l0,0a1.84257,1.84257 0 0 0 1.22119,-3.31045l0,0a1.76684,1.76684 0 0 0 -0.3618,-0.20389z"/>
  <path id="svg_26" opacity="0.5" fill="#4d8af0" d="m184.289679,56.456312a3.67458,3.67458 0 0 1 -2.04749,-4.441a1.76592,1.76592 0 0 0 0.0799,-0.40754l0,0a1.84257,1.84257 0 0 0 -3.31045,-1.22119l0,0a1.76637,1.76637 0 0 0 -0.2039,0.3618a3.67459,3.67459 0 0 1 -4.441,2.04749a1.766,1.766 0 0 0 -0.40754,-0.07991l0,0a1.84258,1.84258 0 0 0 -1.22119,3.31045l0,0a1.76606,1.76606 0 0 0 0.3618,0.20389a3.67462,3.67462 0 0 1 2.04749,4.441a1.76594,1.76594 0 0 0 -0.07991,0.40754l0,0a1.84257,1.84257 0 0 0 3.31045,1.22119l0,0a1.7659,1.7659 0 0 0 0.2039,-0.3618a3.67459,3.67459 0 0 1 4.441,-2.04749a1.76665,1.76665 0 0 0 0.40755,0.07991l0,0a1.84257,1.84257 0 0 0 1.22119,-3.31045l0,0a1.76684,1.76684 0 0 0 -0.3618,-0.20389z"/>
  <path id="svg_27" opacity="0.5" fill="#4d8af0" d="m394.289679,567.456312a3.67458,3.67458 0 0 1 -2.04749,-4.441a1.76592,1.76592 0 0 0 0.0799,-0.40754l0,0a1.84257,1.84257 0 0 0 -3.31045,-1.22119l0,0a1.76637,1.76637 0 0 0 -0.2039,0.3618a3.67459,3.67459 0 0 1 -4.441,2.04749a1.766,1.766 0 0 0 -0.40754,-0.07991l0,0a1.84258,1.84258 0 0 0 -1.22119,3.31045l0,0a1.76606,1.76606 0 0 0 0.3618,0.20389a3.67462,3.67462 0 0 1 2.04749,4.441a1.76594,1.76594 0 0 0 -0.07991,0.40754l0,0a1.84257,1.84257 0 0 0 3.31045,1.22119l0,0a1.7659,1.7659 0 0 0 0.2039,-0.3618a3.67459,3.67459 0 0 1 4.441,-2.04749a1.76665,1.76665 0 0 0 0.40755,0.07991l0,0a1.84257,1.84257 0 0 0 1.22119,-3.31045l0,0a1.76684,1.76684 0 0 0 -0.3618,-0.20389z"/>
  <circle id="svg_28" opacity="0.5" fill="#f55f44" r="6" cy="444" cx="759.39431"/>
  <circle id="svg_29" opacity="0.5" fill="#4d8af0" r="6" cy="482" cx="627.39431"/>
  <circle id="svg_30" opacity="0.5" fill="#47e6b1" r="6" cy="541" cx="103.39431"/>
  <circle id="svg_31" opacity="0.5" fill="#f55f44" r="6" cy="6" cx="411.39431"/>
  <path id="svg_32" fill="#f9a826" d="m204.894319,357.500012l-24,36s8,37 185,36s191,-36 191,-36l-33,-48l-101,-69l-218,81z"/>
  <path id="svg_33" opacity="0.15" d="m204.894319,357.500012l-24,36s8,37 185,36s191,-36 191,-36l-33,-48l-101,-69l-218,81z"/>
  <polygon id="svg_34" fill="#f9a826" points="715.394 224 400.394 363 16.394 224 368.394 64 541.184 143.67 547.374 146.53 715.394 224"/>
  <polygon id="svg_35" opacity="0.15" points="715.394 224 400.394 363 16.394 224 368.394 64 541.184 143.67 547.374 146.53 715.394 224"/>
  <polygon id="svg_36" fill="#f5f5f5" points="553.894 257.32 547.894 257.68 541.184 143.67 547.374 146.53 553.894 257.32"/>
  <path id="svg_37" fill="#f9a826" d="m208.894319,223.500012l-28,170s201,-65 376,0l-26,-180s-235,-29 -322,10z"/>
  <ellipse id="svg_38" fill="#f5f5f5" ry="20" rx="29" cy="272" cx="553.39431"/>
 </g>
</svg>