<svg width="985.58672" height="661.15246" xmlns="http://www.w3.org/2000/svg">
 <title>book_reading</title>

 <g>
  <title>background</title>
  <rect fill="none" id="canvas_background" height="402" width="582" y="-1" x="-1"/>
 </g>
 <g>
  <title>Layer 1</title>
  <rect id="svg_2" fill="#3f3d56" transform="rotate(-67.07803344726562 374.13803100585955,1403.456298828125) " height="928.99999" width="1.99988" y="938.956354" x="373.13808"/>
  <path id="svg_4" fill="#f9a826" d="m830.524518,320.804926a322.06753,322.06753 0 0 1 -93.73,228.11q-4.93506,4.965 -10.09,9.7q-6.21,5.73 -12.74,11.11c-0.83,0.69 -1.66,1.37 -2.5,2.04a313.73111,313.73111 0 0 1 -55.56,36.03c-1.17,0.59 -2.34,1.18 -3.52,1.76c-1.87,0.92 -3.76,1.82 -5.65,2.7a311.18017,311.18017 0 0 1 -223.25,15.15c-129.07,-40.06 -222.96,-162.17 -222.96,-306.6c0,-177.01 141.03,-320.5 315,-320.5s315,143.48999 315,320.5z"/>
  <path id="svg_5" fill="#3f3d56" d="m585.659108,253.571306l0.25017,-0.00978l-0.98654,-2.166a60.49185,60.49185 0 0 0 -4.04939,-8.8911l-28.93467,-63.53026a11.44275,11.44275 0 0 0 -10.60414,-6.6983l-36.64368,0.61046a11.44267,11.44267 0 0 0 -10.666,7.82629l-23.03631,69.18794a60.396,60.396 0 0 0 -1.97059,5.9183l-0.78211,2.34909l0.18367,-0.00718a60.852,60.852 0 1 0 117.23963,-4.58946l-0.00004,0z"/>
  <rect id="svg_6" fill="#f9a826" transform="rotate(-79.63350677490234 57.57419967651354,766.6238403320311) " height="1.32275" width="64.07988" y="1114.86888" x="644.9943"/>
  <rect id="svg_7" fill="#f9a826" transform="rotate(-12.264349937438965 -166.52235412597656,16.03117942810046) " height="64.07988" width="1.32275" y="332.478989" x="477.407026"/>
  <path id="svg_8" fill="#3f3d56" d="m500.697168,141.861466l46.95475,-0.78223a1.32285,1.32285 0 0 1 0.04406,2.64534l-46.95474,0.78223a1.32285,1.32285 0 1 1 -0.04407,-2.64534z"/>
  <path id="svg_9" fill="#3f3d56" d="m501.193088,151.776016l46.95475,-0.78223a1.32285,1.32285 0 1 1 0.04407,2.64534l-46.95475,0.78223a1.32285,1.32285 0 0 1 -0.04407,-2.64534z"/>
  <path id="svg_10" fill="#3f3d56" d="m501.689018,161.690526l46.95475,-0.78223a1.32285,1.32285 0 0 1 0.04407,2.64534l-46.95475,0.78223a1.32285,1.32285 0 0 1 -0.04407,-2.64534z"/>
  <path id="svg_11" fill="#3f3d56" d="m524.017358,132.036046c-9.31374,0.15516 -16.77755,5.47176 -16.67088,11.875l33.72806,-0.56188c-0.10666,-6.40325 -7.74343,-11.46828 -17.05718,-11.31312z"/>
  <path id="svg_12" fill="#f9a826" d="m529.207218,260.766006a8.14933,8.14933 0 0 1 4.94589,2.11341c0.34849,0.2891 0.69141,0.59218 1.0353,0.89589a10.33034,10.33034 0 0 0 3.89692,2.54982c3.23184,0.88191 6.42224,-1.67357 9.11517,-4.28989l0.92216,0.94849c-2.96056,2.87725 -6.50869,5.67481 -10.38559,4.61791a11.46391,11.46391 0 0 1 -4.42461,-2.835c-0.33341,-0.29484 -0.66616,-0.58873 -1.00385,-0.86929c-1.1051,-0.91669 -3.24,-2.34305 -5.138,-1.6034a6.44192,6.44192 0 0 0 -2.05951,1.58861a12.31293,12.31293 0 0 1 -1.4295,1.2871a6.47841,6.47841 0 0 1 -7.17883,0.21359a12.7955,12.7955 0 0 1 -1.12388,-0.84242a4.68807,4.68807 0 0 0 -2.12357,-1.20916c-1.1241,-0.15764 -2.14565,0.64493 -3.22844,1.49342a6.8402,6.8402 0 0 1 -3.743,1.85957c-0.04776,0.00241 -0.09618,0.00418 -0.144,0.005c-2.6363,0.04392 -4.30818,-2.59271 -5.34225,-4.59719l1.176,-0.60617c1.40525,2.72473 2.76,3.96706 4.24042,3.87715a5.81555,5.81555 0 0 0 2.99639,-1.579c1.25176,-0.98212 2.54755,-1.9976 4.22722,-1.763a5.72061,5.72061 0 0 1 2.77362,1.491a11.65548,11.65548 0 0 0 1.00619,0.75749a5.19806,5.19806 0 0 0 5.68469,-0.169a11.16589,11.16589 0 0 0 1.27346,-1.15335a7.51531,7.51531 0 0 1 2.51388,-1.88593a4.34872,4.34872 0 0 1 1.51772,-0.29565z"/>
  <rect id="svg_13" fill="#3f3d56" height="131.98203" width="1.37481" x="524.13395"/>
  <circle id="svg_22" fill="#2f2e41" r="19.23438" cy="285.18876" cx="670.34203"/>
  <path id="svg_23" fill="#2f2e41" d="m649.733758,276.945466a19.234,19.234 0 0 1 17.1736,-19.12068a19.23441,19.23441 0 1 0 0,38.24135a19.234,19.234 0 0 1 -17.1736,-19.12067z"/>
  <path id="svg_24" fill="#f9a826" d="m651.107638,285.188766s-2.98726,13.73885 15.67993,19.23439l-15.67993,-19.23439z"/>
  <circle id="svg_25" fill="#2f2e41" r="64.57257" cy="351.26505" cx="678.29697"/>
  <path id="svg_26" fill="#a0616a" d="m713.964528,569.724906c-0.83,0.69 -1.66,1.37 -2.5,2.04a313.73111,313.73111 0 0 1 -55.56,36.03c-1.17,0.59 -2.34,1.18 -3.52,1.76c-1.87,0.92 -3.76,1.82 -5.65,2.7l-33.1,-11.03l0.38,-7.93l0,-0.03l1.44,-30.24l0.49,-10.34l98.02,17.04z"/>
  <path id="svg_27" fill="#2f2e41" d="m652.384508,609.554926c-1.87,0.92 -3.76,1.82 -5.65,2.7a306.938,306.938 0 0 1 -39.91,15.37a2.22371,2.22371 0 0 1 -0.12,-0.62l6.93,-33.87006l0.38,0.16l38.37,16.26006z"/>
  <circle id="svg_28" fill="#a0616a" r="42.76177" cy="377.01184" cx="662.17842"/>
  <path id="svg_29" fill="#a0616a" d="m696.850128,379.323296s6.93434,34.67171 19.6473,42.76178l-70.49914,83.2121l-26.58164,-25.42592l19.6473,-34.67171s21.95875,-12.713 15.02441,-30.04881l42.76177,-35.82744z"/>
  <path id="svg_30" fill="#a0616a" d="m780.514508,494.154896a320.87478,320.87478 0 0 1 -43.72,54.76c-0.71,-15.5 -2.25,-28.28 -5.27,-32.06a0.031,0.031 0 0 1 -0.02,-0.01l-36.97,-11.55s8.09,-76.28 27.74,-79.74c0,0 2.85,0.57995 7.28,1.92c14.28,4.3 44.93994,16.42 49.35,41.99a141.92617,141.92617 0 0 1 1.61,24.69z"/>
  <path id="svg_31" fill="#a0616a" d="m639.063948,445.199546s-34.67171,-1.15572 -56.63046,26.58164s-75.122,48.5404 -75.122,48.5404l-132.90825,52.00756s-24.2702,-42.76177 -39.2946,-27.73737s27.73736,53.16329 47.38466,48.5404s138.68684,-40.45033 138.68684,-40.45033l94.76934,-42.76178l23.11447,-64.72052z"/>
  <path id="svg_32" fill="#d0cde1" d="m731.524518,516.854906l-4.82,41.76q-6.21,5.73 -12.74,11.11c-0.83,0.69 -1.66,1.37 -2.5,2.04c-33.37,-10.23 -85.66,-9.09 -96.01,-8.74c-1.18,0.03 -1.82,0.06 -1.82,0.06l-1.15,-24.27c-11.09,-3.69 -14.73005,-11.76 -14.83,-20.64c-0.17,-16.1 11.36,-34.84 11.36,-34.84c2.07,-2.07 17.54,-31.4 20.74,-37.48c0.37,-0.71 0.58,-1.1 0.58,-1.1l13.87,-3.46s-0.04,0.11 -0.12,0.31c-1.24,3.47 -12.02,34.86 6.54,35.95c18.26,1.07995 57.98,-50.2 63.45,-57.39c0.41,-0.54 0.63,-0.83 0.63,-0.83l15.03,8.09c-0.06,0.02 -0.12,0.03 -0.18,0.05c-9.18005,2.55 -17.68005,24.66 -17.68005,24.66c-23.97,42.24 18.58,64.18006 19.63,64.71a0.031,0.031 0 0 0 0.02005,0.01z"/>
  <path id="svg_33" fill="#2f2e41" d="m664.501568,326.818226c-22.76326,0 -41.21653,10.76441 -41.21653,24.043c0,5.9414 3.70925,11.37145 9.832,15.56639l7.93463,-5.7492l-2.15776,9.00681c0.89532,0.41492 1.80951,0.8165 2.763,1.18764l11.85353,-13.82916l0,16.98916a69.19156,69.19156 0 0 0 10.99107,0.87134c22.76327,0 41.21654,-10.76441 41.21654,-24.043s-18.45321,-24.04298 -41.21648,-24.04298z"/>
  <circle id="svg_34" fill="#2f2e41" r="19.23438" cy="315.23757" cx="748.93123"/>
  <path id="svg_35" fill="#2f2e41" d="m728.322968,306.994276a19.234,19.234 0 0 1 17.17355,-19.12068a19.42935,19.42935 0 0 0 -2.06082,-0.1137a19.2344,19.2344 0 1 0 2.06082,38.35505a19.234,19.234 0 0 1 -17.17355,-19.12067z"/>
  <path id="svg_36" fill="#f9a826" d="m729.696848,315.237586s-2.98727,13.73884 15.67992,19.23438l-15.67992,-19.23438z"/>
  <ellipse id="svg_37" fill="#a0616a" ry="7.5122" rx="3.33876" cy="373.54467" cx="706.67378"/>
  <path id="svg_38" fill="#d0cde1" d="m338.181358,402.606546l-50.67715,12.27814l-0.16511,0.03931l-5.50879,4.98725l-1.58554,1.43356l-3.39909,-0.61589l-6.01721,-1.08759l4.19317,-14.152l0.78622,-26.99357l-2.8828,-16.51063l15.98648,-11.00709s31.18672,-1.83449 49.26982,51.62851z"/>
  <path id="svg_39" opacity="0.1" d="m287.504178,414.884686c-0.68664,1.465 0.75215,0.49794 -0.03408,2.00487l-7.33805,2.35866l-3.2864,1.4807l-6.01721,-1.08759l4.19317,-14.152l0.78622,-26.99357l-2.8828,-16.51063l15.98648,-11.00709s17.15794,24.29948 -1.40733,63.90665z"/>
  <path id="svg_40" fill="#d0cde1" d="m397.934088,363.819666s-66.56667,30.92467 -93.56024,35.642s-24.63491,31.71089 -24.63491,31.71089l151.21642,-23.58661s-5.24148,-24.37284 -33.02127,-43.76628z"/>
  <path id="svg_41" fill="#f9a826" d="m269.518068,358.578196s11.53123,28.04187 -1.31037,62.89764l14.93819,6.81391l5.76562,-6.81391l0.131,-0.65518l-15.85545,-1.44141s13.10367,-35.11785 2.35866,-59.49068c0.00004,0 -2.35862,-5.24147 -6.02765,-1.31037z"/>
  <path id="svg_42" fill="#3f3d56" d="m489.397738,566.402466c-58.96654,-13.10365 -113.87094,14.021 -113.87094,14.021l-0.14938,-0.13366l-21.86479,-19.52185l-85.436,-139.4231l20.83484,0.131c57.91824,-34.5937 139.4231,-29.87638 139.4231,-29.87638c35.11789,39.83516 61.06317,174.80299 61.06317,174.80299z"/>
  <path id="svg_43" opacity="0.1" d="m375.377418,580.289756l-21.86479,-19.52185l-85.436,-139.4231l20.83484,0.131s83.04065,109.67517 86.46595,158.81395z"/>
  <ellipse id="svg_44" fill="#d0cde1" transform="rotate(-17.051849365234375 -255.8680572509766,39.1183586120605) " ry="21.49003" rx="33.80748" cy="618.924999" cx="230.010263"/>
  <circle stroke="null" id="svg_47" fill="#f9a826" r="11.5" cy="81.15246" cx="254.293361"/>
  <circle stroke="null" stroke-width="51" id="svg_48" fill="#f9a826" r="50" cy="127.000002" cx="798.586707"/>
  <circle stroke="null" id="svg_49" fill="#f9a826" r="23" cy="462.152475" cx="169.793361"/>
  <circle stroke="null" id="svg_50" fill="#f9a826" r="11" cy="548.15247" cx="247.793363"/>
  <circle stroke="null" id="svg_51" fill="#f9a826" r="23" cy="184.152475" cx="177.793361"/>
  <circle stroke="#f9a826" fill-opacity="0" opacity="0.98" id="svg_53" fill="#f9a826" r="14.5" cy="87.652477" cx="137.293363"/>
  <circle stroke="#f9a826" fill-opacity="0" opacity="0.98" id="svg_56" fill="#f9a826" r="14.5" cy="584.152473" cx="876.293352"/>
  <circle stroke="#f9a826" fill-opacity="0" opacity="0.98" id="svg_57" fill="#f9a826" r="14" cy="562.152472" cx="143.793359"/>
  <circle stroke="null" id="svg_58" fill="#f9a826" r="11.5" cy="566.152471" cx="767.293348"/>
  <circle stroke="null" id="svg_59" fill="#f9a826" r="23" cy="481.152475" cx="847.793361"/>
 </g>
</svg>