<svg width="704.59736" height="465.82439" xmlns="http://www.w3.org/2000/svg">
 <title>Working</title>

 <g>
  <title>background</title>
  <rect fill="none" id="canvas_background" height="467.82439" width="706.59736" y="-1" x="-1"/>
 </g>
 <g>
  <title>Layer 1</title>
  <rect id="svg_1" fill="#3f3d56" transform="rotate(-12.752209663391113 -279.091796875,-47.469741821288885) " rx="13.4354" height="302.01031" width="207.97236" y="103.361918" x="-28.929797"/>
  <circle id="svg_2" fill="#fff" r="6" cy="84" cx="18.59736"/>
  <circle id="svg_3" fill="#fff" r="6" cy="106" cx="24.59736"/>
  <circle id="svg_4" fill="#fff" r="6" cy="267" cx="63.59736"/>
  <circle id="svg_5" fill="#fff" r="6" cy="289" cx="69.59736"/>
  <rect id="svg_6" fill="#f5f5f5" transform="rotate(-12.752209663391113 -272.1947937011719,-49.215221405029176) " height="20.8127" width="124.87617" y="210.482329" x="15.153756"/>
  <rect id="svg_7" fill="#6c63ff" transform="rotate(-12.752209663391113 -298.7408142089844,-12.245109558105458) " height="302.01031" width="207.97236" y="244.11733" x="99.207431"/>
  <rect id="svg_8" fill="#3f3d56" transform="rotate(-12.752209663391113 -282.7785949707032,33.777458190917876) " height="302.01031" width="207.97236" y="241.729118" x="329.076235"/>
  <rect id="svg_9" fill="#f5f5f5" transform="rotate(-12.752209663391113 -276.42047119140625,-21.03009033203111) " height="20.8127" width="124.87617" y="271.66746" x="134.928094"/>
  <rect id="svg_10" fill="#f5f5f5" transform="rotate(-12.752209663391113 -285.33734130859375,-17.937410354614293) " height="5.20317" width="166.50156" y="324.00935" x="114.578119"/>
  <rect id="svg_11" fill="#f5f5f5" transform="rotate(-12.752209663391113 -287.8850402832031,-17.053779602050657) " height="5.20317" width="166.50156" y="336.73426" x="114.710315"/>
  <rect id="svg_12" fill="#f5f5f5" transform="rotate(-12.752209663391113 -290.4327087402344,-16.170160293579052) " height="5.20317" width="166.50156" y="349.45915" x="114.842537"/>
  <rect id="svg_13" fill="#f5f5f5" transform="rotate(-12.752209663391113 -296.13619995117193,-24.385400772094613) " height="5.20317" width="79.782" y="362.656209" x="112.888445"/>
  <rect id="svg_14" fill="#f5f5f5" transform="rotate(-12.752209663391113 -298.24206542968756,-22.227930068969723) " height="5.20317" width="91.92274" y="375.31501" x="113.31274"/>
  <rect id="svg_15" fill="#f5f5f5" transform="rotate(-12.752209663391113 -298.07574462890625,-13.51928997039804) " height="5.20317" width="166.50156" y="387.63384" x="115.239145"/>
  <rect id="svg_16" fill="#f5f5f5" transform="rotate(-12.752209663391113 -300.6234130859375,-12.635669708251758) " height="5.20317" width="166.50156" y="400.35873" x="115.371357"/>
  <rect id="svg_17" fill="#f5f5f5" transform="rotate(-12.752209663391113 -303.61291503906256,-13.025879859924109) " height="5.20317" width="154.36082" y="413.14974" x="115.211475"/>
  <rect id="svg_18" fill="#f5f5f5" transform="rotate(-12.752209663391113 -305.7187805175781,-10.868420600890937) " height="5.20317" width="166.50156" y="425.80853" x="115.635769"/>
  <rect id="svg_19" fill="#f5f5f5" transform="rotate(-12.752209663391113 -311.16979980468744,-18.355751037597535) " height="5.20317" width="86.71956" y="438.96781" x="113.84859"/>
  <rect id="svg_20" opacity="0.3" fill="#6c63ff" transform="rotate(-12.752209663391113 -297.48193359375006,30.51411819458018) " height="5.20317" width="91.92274" y="451.026988" x="350.444376"/>
  <rect id="svg_21" opacity="0.3" fill="#6c63ff" transform="rotate(-12.752209663391113 -297.3156433105468,39.22275924682608) " height="5.20317" width="166.50156" y="463.345829" x="352.370782"/>
  <rect id="svg_22" opacity="0.3" fill="#6c63ff" transform="rotate(-12.752209663391113 -299.8633117675781,40.10638046264652) " height="5.20317" width="166.50156" y="476.07072" x="352.502978"/>
  <rect id="svg_23" opacity="0.3" fill="#6c63ff" transform="rotate(-12.752209663391113 -302.8528137207031,39.71617126464833) " height="5.20317" width="154.36082" y="488.861731" x="352.343112"/>
  <rect id="svg_24" opacity="0.3" fill="#6c63ff" transform="rotate(-12.752209663391113 -304.95867919921875,41.873630523681506) " height="5.20317" width="166.50156" y="501.520521" x="352.767396"/>
  <rect id="svg_25" fill="#f5f5f5" transform="rotate(-12.752209663391113 -317.22113037109375,0.05250000953679344) " height="69.37565" width="100.59469" y="461.57031" x="180.20076"/>
  <rect id="svg_26" opacity="0.3" fill="#6c63ff" transform="rotate(-12.752209663391113 -264.5924377441406,20.126239776611335) " height="69.37565" width="100.59469" y="256.19663" x="348.962678"/>
  <rect id="svg_27" opacity="0.3" fill="#6c63ff" transform="rotate(-12.752209663391113 -277.8376159667968,43.06824874877931) " height="69.37565" width="100.59469" y="349.874549" x="431.747674"/>
  <rect id="svg_45" fill="#6c63ff" transform="rotate(-12.752209663391113 -296.32135009765636,52.34479904174798) " rx="13.4354" height="302.01031" width="207.97236" y="330.176459" x="391.84065"/>
  <circle id="svg_46" fill="#fff" r="6" cy="211" cx="456.59736"/>
  <circle id="svg_47" fill="#fff" r="6" cy="233" cx="462.59736"/>
  <circle id="svg_48" fill="#fff" r="6" cy="394" cx="501.59736"/>
  <circle id="svg_49" fill="#fff" r="6" cy="416" cx="507.59736"/>
  <rect id="svg_50" fill="#f5f5f5" transform="rotate(-12.752209663391113 -289.42437744140636,50.59931945800775) " height="20.8127" width="124.87617" y="437.296869" x="435.924188"/>
 </g>
</svg>